
<svg width="18" height="18" viewBox="0 0 18 18" fill="none" xmlns="http://www.w3.org/2000/svg">
<g clip-path="url(#clip0)">
<path opacity="0.1" d="M7.27454 0.16759L8.06904 3.17481C8.67763 3.07954 9.29768 3.07954 9.90627 3.17481L10.7131 0.16759C9.57355 -0.0558632 8.40169 -0.0558632 7.2621 0.16759C7.26213 0.16759 7.27454 0.16759 7.27454 0.16759Z" fill="#3E7E7C">
     <!-- <animate id="animation1"
        attributeName="opacity"
        from="0.1" to="1" dur="1s"
        repeatCount="indefinite"
    /> -->
</path>
<path opacity="0.1" d="M11.1165 3.49758C11.6925 3.72104 12.2288 4.0354 12.7054 4.42862L14.8965 2.21277C14.0232 1.44868 13.009 0.862451 11.911 0.487265L11.1165 3.49758Z" fill="#3E7E7C">
    <!-- <animate id="animation1"
        attributeName="opacity"
         from="0.2" to="1" dur="1s"
        repeatCount="indefinite"
    /> -->
</path>

<path opacity="0.2" d="M13.5838 5.29449C13.977 5.77117 14.2913 6.30744 14.5148 6.88344L17.5251 6.07654C17.1447 4.98195 16.5544 3.97209 15.7872 3.10345L13.5838 5.29449Z" fill="#3E7E7C">
     <!-- <animate id="animation1"
        attributeName="opacity"
         from="0.3" to="1" dur="1s"
        repeatCount="indefinite"
    /> -->
</path>
<path opacity="0.3" d="M14.8966 8.99998C14.8972 9.31157 14.8733 9.62316 14.8252 9.93103L17.8324 10.7379C18.0559 9.59834 18.0559 8.42648 17.8324 7.28689L14.8252 8.06898C14.8733 8.37712 14.8972 8.68839 14.8966 8.99998Z" fill="#3E7E7C">
 <!-- <animate id="animation1"
        attributeName="opacity"
         from="0.4" to="1" dur="1s"
        repeatCount="indefinite"
    /> -->
</path>
<path opacity="0.4" d="M13.5837 12.7055L15.7872 14.8966C16.5513 14.0232 17.1375 13.0091 17.5127 11.9111L14.5023 11.1041C14.2839 11.6835 13.9736 12.2245 13.5837 12.7055Z" fill="#3E7E7C">
     <!-- <animate id="animation1"
        attributeName="opacity"
         from="0.5" to="1" dur="1s"
        repeatCount="indefinite"
    /> -->
</path>
<path opacity="0.5" d="M11.1165 14.5024L11.9234 17.5127C13.017 17.136 14.0269 16.5497 14.8965 15.7872L12.693 13.5838C12.2194 13.9714 11.6872 14.2814 11.1165 14.5024Z" fill="#3E7E7C">
     <!-- <animate id="animation1"
        attributeName="opacity"
        from="0" to="0.9" dur="1s"
        repeatCount="indefinite"
    /> -->
</path>
<path opacity="0.4" d="M7.27455 17.8324C8.41414 18.0558 9.586 18.0558 10.7256 17.8324L9.93109 14.8251C9.3225 14.9204 8.70245 14.9204 8.09386 14.8251L7.27455 17.8324Z" fill="#3E7E7C">
     <!-- <animate id="animation1"
        attributeName="opacity"
        from="0" to="0.9" dur="1s"
        repeatCount="indefinite"
    /> -->
</path>
<path opacity="0.3" d="M3.10359 15.7872C3.97691 16.5513 4.99109 17.1376 6.08909 17.5127L6.896 14.5024C6.32 14.2789 5.78372 13.9646 5.30704 13.5713L3.10359 15.7872Z" fill="#3E7E7C">
     <!-- <animate id="animation1"
        attributeName="opacity"
        from="0" to="0.9" dur="1s"
        repeatCount="indefinite"
    /> -->
</path>
<path opacity="0.2" d="M0.487066 11.9234C0.863835 13.0171 1.45006 14.0269 2.21257 14.8965L4.41602 12.6931C4.02279 12.2164 3.70843 11.6801 3.48497 11.1041L0.487066 11.9234Z" fill="#3E7E7C">
     <!-- <animate id="animation1"
        attributeName="opacity"
        from="0" to="0.9" dur="1s"
        repeatCount="indefinite"
    /> -->
</path>
<path opacity="0.1" d="M2.6226e-06 8.99998C-0.00122786 9.57939 0.0549161 10.1573 0.167591 10.7255L3.1748 9.93099C3.07953 9.3224 3.07953 8.70235 3.1748 8.09376L0.167591 7.28686C0.0558655 7.85111 -0.000313759 8.42493 2.6226e-06 8.99998Z" fill="#3E7E7C">
     <!-- <animate id="animation1"
        attributeName="opacity"
        from="0" to="0.9" dur="1s"
        repeatCount="indefinite"
    /> -->
</path>
<path opacity="0.1" d="M0.487072 6.07653L3.49743 6.88344C3.72088 6.30744 4.03524 5.77117 4.42847 5.29448L2.22502 3.09103C1.45661 3.9634 0.86602 4.97762 0.487072 6.07653Z" fill="#3E7E7C">
     <!-- <animate id="animation1"
        attributeName="opacity"
        from="0" to="0.9" dur="1s"
        repeatCount="indefinite"
    /> -->
</path>
<path opacity="0.1" d="M3.10359 2.21277L5.30704 4.41622C5.78372 4.02299 6.32 3.70863 6.896 3.48518L6.08909 0.474821C4.99018 0.854086 3.97596 1.44436 3.10359 2.21277Z" fill="#3E7E7C">
     <!-- <animate id="animation1"
        attributeName="opacity"
        from="0" to="0.9" dur="1s"
        repeatCount="indefinite"
    /> -->
</path>
</g>
<defs>
<clipPath id="clip0">
<rect width="18" height="18" fill="white" transform="matrix(-1 0 0 1 18 0)"/>
</clipPath>
</defs>
</svg>
